<svg width="800" height="400" viewBox="0 0 800 400" fill="none" xmlns="http://www.w3.org/2000/svg">
  <path d="M169.5 219.5C169.5 219.5 169.5 219.5 169.5 219.5C169.5 219.5 169.5 219.5 169.5 219.5Z" fill="#3B4374"/>
  <path d="M202.5 219.5C202.5 219.5 202.5 219.5 202.5 219.5C202.5 219.5 202.5 219.5 202.5 219.5Z" fill="#3B4374"/>
  <path d="M169.5 252.5C169.5 252.5 169.5 252.5 169.5 252.5C169.5 252.5 169.5 252.5 169.5 252.5Z" fill="#3B4374"/>
  <path d="M202.5 252.5C202.5 252.5 202.5 252.5 202.5 252.5C202.5 252.5 202.5 252.5 202.5 252.5Z" fill="#3B4374"/>
  <path d="M169.5 219.5C169.5 219.5 169.5 219.5 169.5 219.5C169.5 219.5 169.5 219.5 169.5 219.5Z" stroke="#3B4374" stroke-width="33"/>
  <path d="M202.5 219.5C202.5 219.5 202.5 219.5 202.5 219.5C202.5 219.5 202.5 219.5 202.5 219.5Z" stroke="#3B4374" stroke-width="33"/>
  <path d="M169.5 252.5C169.5 252.5 169.5 252.5 169.5 252.5C169.5 252.5 169.5 252.5 169.5 252.5Z" stroke="#3B4374" stroke-width="33"/>
  <path d="M202.5 252.5C202.5 252.5 202.5 252.5 202.5 252.5C202.5 252.5 202.5 252.5 202.5 252.5Z" stroke="#3B4374" stroke-width="33"/>
  <path d="M169.5 219.5H202.5V252.5H169.5V219.5Z" fill="#3B4374"/>
  <path d="M169.5 219.5H202.5V252.5H169.5V219.5Z" stroke="#3B4374" stroke-width="33"/>
  <path d="M358.5 219.5C358.5 219.5 358.5 219.5 358.5 219.5C358.5 219.5 358.5 219.5 358.5 219.5Z" fill="#3B4374"/>
  <path d="M391.5 219.5C391.5 219.5 391.5 219.5 391.5 219.5C391.5 219.5 391.5 219.5 391.5 219.5Z" fill="#3B4374"/>
  <path d="M358.5 252.5C358.5 252.5 358.5 252.5 358.5 252.5C358.5 252.5 358.5 252.5 358.5 252.5Z" fill="#3B4374"/>
  <path d="M391.5 252.5C391.5 252.5 391.5 252.5 391.5 252.5C391.5 252.5 391.5 252.5 391.5 252.5Z" fill="#3B4374"/>
  <path d="M358.5 219.5C358.5 219.5 358.5 219.5 358.5 219.5C358.5 219.5 358.5 219.5 358.5 219.5Z" stroke="#3B4374" stroke-width="33"/>
  <path d="M391.5 219.5C391.5 219.5 391.5 219.5 391.5 219.5C391.5 219.5 391.5 219.5 391.5 219.5Z" stroke="#3B4374" stroke-width="33"/>
  <path d="M358.5 252.5C358.5 252.5 358.5 252.5 358.5 252.5C358.5 252.5 358.5 252.5 358.5 252.5Z" stroke="#3B4374" stroke-width="33"/>
  <path d="M391.5 252.5C391.5 252.5 391.5 252.5 391.5 252.5C391.5 252.5 391.5 252.5 391.5 252.5Z" stroke="#3B4374" stroke-width="33"/>
  <path d="M358.5 219.5H391.5V252.5H358.5V219.5Z" fill="#3B4374"/>
  <path d="M358.5 219.5H391.5V252.5H358.5V219.5Z" stroke="#3B4374" stroke-width="33"/>
  <path d="M264 219.5C264 219.5 264 219.5 264 219.5C264 219.5 264 219.5 264 219.5Z" fill="#3B4374"/>
  <path d="M297 219.5C297 219.5 297 219.5 297 219.5C297 219.5 297 219.5 297 219.5Z" fill="#3B4374"/>
  <path d="M264 252.5C264 252.5 264 252.5 264 252.5C264 252.5 264 252.5 264 252.5Z" fill="#3B4374"/>
  <path d="M297 252.5C297 252.5 297 252.5 297 252.5C297 252.5 297 252.5 297 252.5Z" fill="#3B4374"/>
  <path d="M264 219.5C264 219.5 264 219.5 264 219.5C264 219.5 264 219.5 264 219.5Z" stroke="#3B4374" stroke-width="33"/>
  <path d="M297 219.5C297 219.5 297 219.5 297 219.5C297 219.5 297 219.5 297 219.5Z" stroke="#3B4374" stroke-width="33"/>
  <path d="M264 252.5C264 252.5 264 252.5 264 252.5C264 252.5 264 252.5 264 252.5Z" stroke="#3B4374" stroke-width="33"/>
  <path d="M297 252.5C297 252.5 297 252.5 297 252.5C297 252.5 297 252.5 297 252.5Z" stroke="#3B4374" stroke-width="33"/>
  <path d="M264 219.5H297V252.5H264V219.5Z" fill="#3B4374"/>
  <path d="M264 219.5H297V252.5H264V219.5Z" stroke="#3B4374" stroke-width="33"/>
  <path d="M453 219.5C453 219.5 453 219.5 453 219.5C453 219.5 453 219.5 453 219.5Z" fill="#3B4374"/>
  <path d="M486 219.5C486 219.5 486 219.5 486 219.5C486 219.5 486 219.5 486 219.5Z" fill="#3B4374"/>
  <path d="M453 252.5C453 252.5 453 252.5 453 252.5C453 252.5 453 252.5 453 252.5Z" fill="#3B4374"/>
  <path d="M486 252.5C486 252.5 486 252.5 486 252.5C486 252.5 486 252.5 486 252.5Z" fill="#3B4374"/>
  <path d="M453 219.5C453 219.5 453 219.5 453 219.5C453 219.5 453 219.5 453 219.5Z" stroke="#3B4374" stroke-width="33"/>
  <path d="M486 219.5C486 219.5 486 219.5 486 219.5C486 219.5 486 219.5 486 219.5Z" stroke="#3B4374" stroke-width="33"/>
  <path d="M453 252.5C453 252.5 453 252.5 453 252.5C453 252.5 453 252.5 453 252.5Z" stroke="#3B4374" stroke-width="33"/>
  <path d="M486 252.5C486 252.5 486 252.5 486 252.5C486 252.5 486 252.5 486 252.5Z" stroke="#3B4374" stroke-width="33"/>
  <path d="M453 219.5H486V252.5H453V219.5Z" fill="#3B4374"/>
  <path d="M453 219.5H486V252.5H453V219.5Z" stroke="#3B4374" stroke-width="33"/>
  <path d="M547.5 219.5C547.5 219.5 547.5 219.5 547.5 219.5C547.5 219.5 547.5 219.5 547.5 219.5Z" fill="#3B4374"/>
  <path d="M580.5 219.5C580.5 219.5 580.5 219.5 580.5 219.5C580.5 219.5 580.5 219.5 580.5 219.5Z" fill="#3B4374"/>
  <path d="M547.5 252.5C547.5 252.5 547.5 252.5 547.5 252.5C547.5 252.5 547.5 252.5 547.5 252.5Z" fill="#3B4374"/>
  <path d="M580.5 252.5C580.5 252.5 580.5 252.5 580.5 252.5C580.5 252.5 580.5 252.5 580.5 252.5Z" fill="#3B4374"/>
  <path d="M547.5 219.5C547.5 219.5 547.5 219.5 547.5 219.5C547.5 219.5 547.5 219.5 547.5 219.5Z" stroke="#3B4374" stroke-width="33"/>
  <path d="M580.5 219.5C580.5 219.5 580.5 219.5 580.5 219.5C580.5 219.5 580.5 219.5 580.5 219.5Z" stroke="#3B4374" stroke-width="33"/>
  <path d="M547.5 252.5C547.5 252.5 547.5 252.5 547.5 252.5C547.5 252.5 547.5 252.5 547.5 252.5Z" stroke="#3B4374" stroke-width="33"/>
  <path d="M580.5 252.5C580.5 252.5 580.5 252.5 580.5 252.5C580.5 252.5 580.5 252.5 580.5 252.5Z" stroke="#3B4374" stroke-width="33"/>
  <path d="M547.5 219.5H580.5V252.5H547.5V219.5Z" fill="#3B4374"/>
  <path d="M547.5 219.5H580.5V252.5H547.5V219.5Z" stroke="#3B4374" stroke-width="33"/>
  <path d="M642 219.5C642 219.5 642 219.5 642 219.5C642 219.5 642 219.5 642 219.5Z" fill="#3B4374"/>
  <path d="M675 219.5C675 219.5 675 219.5 675 219.5C675 219.5 675 219.5 675 219.5Z" fill="#3B4374"/>
  <path d="M642 252.5C642 252.5 642 252.5 642 252.5C642 252.5 642 252.5 642 252.5Z" fill="#3B4374"/>
  <path d="M675 252.5C675 252.5 675 252.5 675 252.5C675 252.5 675 252.5 675 252.5Z" fill="#3B4374"/>
  <path d="M642 219.5C642 219.5 642 219.5 642 219.5C642 219.5 642 219.5 642 219.5Z" stroke="#3B4374" stroke-width="33"/>
  <path d="M675 219.5C675 219.5 675 219.5 675 219.5C675 219.5 675 219.5 675 219.5Z" stroke="#3B4374" stroke-width="33"/>
  <path d="M642 252.5C642 252.5 642 252.5 642 252.5C642 252.5 642 252.5 642 252.5Z" stroke="#3B4374" stroke-width="33"/>
  <path d="M675 252.5C675 252.5 675 252.5 675 252.5C675 252.5 675 252.5 675 252.5Z" stroke="#3B4374" stroke-width="33"/>
  <path d="M642 219.5H675V252.5H642V219.5Z" fill="#3B4374"/>
  <path d="M642 219.5H675V252.5H642V219.5Z" stroke="#3B4374" stroke-width="33"/>
  <path d="M736.5 219.5C736.5 219.5 736.5 219.5 736.5 219.5C736.5 219.5 736.5 219.5 736.5 219.5Z" fill="#3B4374"/>
  <path d="M769.5 219.5C769.5 219.5 769.5 219.5 769.5 219.5C769.5 219.5 769.5 219.5 769.5 219.5Z" fill="#3B4374"/>
  <path d="M736.5 252.5C736.5 252.5 736.5 252.5 736.5 252.5C736.5 252.5 736.5 252.5 736.5 252.5Z" fill="#3B4374"/>
  <path d="M769.5 252.5C769.5 252.5 769.5 252.5 769.5 252.5C769.5 252.5 769.5 252.5 769.5 252.5Z" fill="#3B4374"/>
  <path d="M736.5 219.5C736.5 219.5 736.5 219.5 736.5 219.5C736.5 219.5 736.5 219.5 736.5 219.5Z" stroke="#3B4374" stroke-width="33"/>
  <path d="M769.5 219.5C769.5 219.5 769.5 219.5 769.5 219.5C769.5 219.5 769.5 219.5 769.5 219.5Z" stroke="#3B4374" stroke-width="33"/>
  <path d="M736.5 252.5C736.5 252.5 736.5 252.5 736.5 252.5C736.5 252.5 736.5 252.5 736.5 252.5Z" stroke="#3B4374" stroke-width="33"/>
  <path d="M769.5 252.5C769.5 252.5 769.5 252.5 769.5 252.5C769.5 252.5 769.5 252.5 769.5 252.5Z" stroke="#3B4374" stroke-width="33"/>
  <path d="M736.5 219.5H769.5V252.5H736.5V219.5Z" fill="#3B4374"/>
  <path d="M736.5 219.5H769.5V252.5H736.5V219.5Z" stroke="#3B4374" stroke-width="33"/>
  <path d="M75 219.5C75 219.5 75 219.5 75 219.5C75 219.5 75 219.5 75 219.5Z" fill="#3B4374"/>
  <path d="M108 219.5C108 219.5 108 219.5 108 219.5C108 219.5 108 219.5 108 219.5Z" fill="#3B4374"/>
  <path d="M75 252.5C75 252.5 75 252.5 75 252.5C75 252.5 75 252.5 75 252.5Z" fill="#3B4374"/>
  <path d="M108 252.5C108 252.5 108 252.5 108 252.5C108 252.5 108 252.5 108 252.5Z" fill="#3B4374"/>
  <path d="M75 219.5C75 219.5 75 219.5 75 219.5C75 219.5 75 219.5 75 219.5Z" stroke="#3B4374" stroke-width="33"/>
  <path d="M108 219.5C108 219.5 108 219.5 108 219.5C108 219.5 108 219.5 108 219.5Z" stroke="#3B4374" stroke-width="33"/>
  <path d="M75 252.5C75 252.5 75 252.5 75 252.5C75 252.5 75 252.5 75 252.5Z" stroke="#3B4374" stroke-width="33"/>
  <path d="M108 252.5C108 252.5 108 252.5 108 252.5C108 252.5 108 252.5 108 252.5Z" stroke="#3B4374" stroke-width="33"/>
  <path d="M75 219.5H108V252.5H75V219.5Z" fill="#3B4374"/>
  <path d="M75 219.5H108V252.5H75V219.5Z" stroke="#3B4374" stroke-width="33"/>
  <circle cx="700" cy="236" r="100" stroke="#3B4374" stroke-width="2"/>
  <circle cx="700" cy="236" r="90" stroke="#3B4374" stroke-width="2"/>
  <circle cx="700" cy="236" r="80" stroke="#3B4374" stroke-width="2"/>
  <circle cx="700" cy="236" r="70" stroke="#3B4374" stroke-width="2"/>
  <circle cx="700" cy="236" r="60" stroke="#3B4374" stroke-width="2"/>
  <circle cx="700" cy="236" r="50" stroke="#3B4374" stroke-width="2"/>
  <circle cx="700" cy="236" r="40" stroke="#3B4374" stroke-width="2"/>
</svg>